<svg width="1024" height="1024" viewBox="0 0 1024 1024" fill="none" xmlns="http://www.w3.org/2000/svg">
<defs>
  <linearGradient id="gradMain" x1="0%" y1="0%" x2="100%" y2="100%">
    <stop offset="0%" stop-color="#3b82f6" />
    <stop offset="100%" stop-color="#a855f7" />
  </linearGradient>
  <linearGradient id="gradAccent" x1="0%" y1="0%" x2="100%" y2="100%">
    <stop offset="0%" stop-color="#10b981" />
    <stop offset="100%" stop-color="#0ea5e9" />
  </linearGradient>
</defs>
<path d="M511.449 544.286C517.864 532.216 525.199 520.281 532.124 508.466C542.034 491.189 552.159 474.04 562.504 457.023C601.859 392.108 622.919 352.847 697.949 323.884C766.639 297.368 842.974 272.944 901.529 227.449C907.859 222.533 917.139 211.63 923.084 208.134C924.499 210.41 925.904 213.343 926.439 215.964C947.519 319.593 797.559 360.77 726.399 379.114C733.859 379.121 744.479 376.518 752.414 375.967C759.339 374.188 772.254 372.44 780.004 370.956C817.034 361.941 847.219 353.006 882.019 336.387C889.734 332.676 897.314 328.692 904.744 324.441C908.084 322.534 915.334 318.087 918.444 316.666C916.239 355.291 886.984 386.714 853.754 403.42C811.279 424.769 761.979 434.537 715.289 441.527C708.074 442.606 700.859 443.186 693.699 444.239C703.294 444.971 724.814 443.83 735.104 443.256C737.879 442.603 747.249 442.444 750.759 442.05C756.329 441.871 763.924 440.759 769.589 440.062C798.149 436.656 826.274 430.251 853.489 420.953C857.804 419.473 866.384 416.507 870.249 414.501C855.179 482.689 762.214 504.375 702.839 498.373C694.304 497.511 686.569 496.036 678.149 494.787C681.654 497.103 685.054 497.836 688.969 499.026C711.624 505.911 734.844 511.24 758.624 511.56C766.529 511.665 774.529 510.846 782.454 510.891C771.444 529.411 747.739 542.431 727.374 547.616C713.419 551.166 701.879 551.551 687.694 550.841L687.619 638.831L687.639 673.716C687.644 690.446 686.724 707.656 692.049 723.651C695.329 733.491 700.009 740.761 706.084 749.041C707.109 750.436 711.129 755.571 711.579 756.426C713.824 758.541 716.619 760.711 717.169 763.766L716.699 764.781C692.904 765.646 664.904 764.931 640.844 764.926L604.604 764.911C601.209 764.911 587.239 765.585 585.324 764.06L585.034 763.241C586.379 761.001 590.264 756.115 592.064 754.065C616.294 726.45 610.554 691.161 610.619 656.106L610.599 556.44C610.594 538.7 610.104 518.001 610.954 500.641C603.324 512.471 593.324 531.341 586.064 543.976L534.074 634.255C527.589 645.46 519.234 661.041 512.359 671.451C508.709 666.361 503.999 657.741 500.739 652.176L479.681 616.106C463.221 588.391 446.959 560.551 430.898 532.601C424.988 522.381 418.574 511.905 412.868 501.67L412.82 639.976L412.815 679.111C412.818 694.996 412.076 709.491 415.921 725.096C419.681 740.361 426.752 746.621 434.604 758.416C436.251 760.026 437.125 760.601 437.938 762.681C437.828 763.316 437.877 764.131 437.319 764.236C430.383 765.586 415.272 764.926 408.531 764.926L354.515 764.94L323.138 764.951C319.07 764.951 309.845 765.176 306.18 764.546C305.419 763.881 305.471 764.031 304.927 763.211C306.546 760.466 311.089 755.251 313.311 752.701C335.013 727.811 335.112 705.691 335.122 674.516L335.114 630.466L335.134 578.236C335.139 569.881 335.472 558.966 335.049 550.786C314.391 552.501 291.491 549.196 272.876 539.861C260.489 533.646 246.224 523.451 239.425 511.036C247.362 510.756 255.784 511.74 263.739 511.42C288.268 510.44 321.928 503.701 344.32 494.395C327.265 497.983 307.981 499.531 290.599 499.228C235.738 498.273 167.863 474.2 153.501 415.053C163.896 417.998 175.566 423.355 187.157 426.662C226.47 437.827 267.107 443.648 307.974 443.969C315.179 444.098 325.437 444.805 332.337 444.231C327.629 443.35 321.098 443.031 316.171 442.491C308.584 441.603 301.018 440.547 293.478 439.324C251.919 432.728 203.829 420.905 166.408 401.243C136.422 385.487 108.306 352.695 106.959 317.321C112.525 319.719 116.848 322.429 122.151 325.346C129.598 329.498 137.19 333.385 144.912 337.001C182.905 354.904 223.164 367.541 264.574 374.562C273.031 376.057 284.524 378.332 292.806 378.623C284.574 376.266 276.12 374.565 267.727 371.774C213.25 353.656 136.078 330.115 106.765 276.582C95.4776 255.967 92.8796 230.122 99.8576 208C108.367 217.127 116.172 225.092 126.242 232.63C153.767 253.231 185.62 267.894 217.075 281.273C242.411 291.886 267.906 302.119 293.549 311.969C334.675 327.95 373.172 341.887 404.292 375.024C429.784 402.168 450.093 440.392 469.317 472.504C483.35 495.943 498.272 520.476 511.449 544.286Z" fill="url(#gradMain)"/>
<path d="M711.615 756.46C713.86 758.575 716.655 760.745 717.205 763.8L716.735 764.815C692.94 765.68 664.94 764.965 640.88 764.96L604.64 764.945C601.245 764.945 587.275 765.62 585.36 764.095L585.07 763.275C589.83 763.6 598.955 763.26 604.085 763.23L640.59 763.15L685.745 763.14C695.44 763.16 705.915 763.415 715.535 762.92C715.135 762.52 714.735 762.115 714.345 761.705C712.6 759.875 711.565 758.98 711.615 756.46Z" fill="url(#gradAccent)"/>
<path d="M434.64 758.45C436.288 760.06 437.161 760.635 437.974 762.715C437.864 763.35 437.913 764.165 437.355 764.27C430.419 765.62 415.308 764.96 408.567 764.96L354.551 764.975L323.174 764.985C319.106 764.985 309.881 765.21 306.216 764.58C305.456 763.915 305.508 764.065 304.964 763.245C312.702 763.585 323.346 763.22 331.353 763.175L376.574 763.13L413.542 763.14C420.143 763.14 429.05 763.445 435.358 762.875L435.546 762.19C434.876 760.61 434.673 760.23 434.64 758.45Z" fill="url(#gradAccent)"/>
<path d="M752.45 376.001C759.375 374.222 772.29 372.475 780.04 370.991L780.23 371.865C778.56 372.911 757.255 377.349 754.125 376.768C753.37 376.627 753.035 376.447 752.45 376.001Z" fill="url(#gradAccent)"/>
<path d="M735.14 443.29C737.915 442.637 747.285 442.479 750.795 442.085L752.43 442.843C749.875 444.4 737.445 445.438 735.14 443.29Z" fill="url(#gradAccent)"/>
<path d="M516.25 267.228C531.72 267.061 547.44 271.061 560.665 279.175C570.25 285.059 575.35 291.724 583.565 298.414C598.89 310.895 613.45 313.492 618.465 335.062C609.505 332.782 603.39 331.693 594.33 331.054C568.79 329.256 546.725 338.123 546.365 366.962C546.15 383.906 550.34 396.356 562.33 408.902C558.925 415.711 554.1 423.666 550.265 430.371L526.565 471.764L511.875 497.245L511.745 497.103C509.25 494.396 503.67 484.212 501.535 480.569L481.385 446.253C470.115 427.116 459.084 407.738 446.526 389.398C441.165 381.567 434.897 374.731 429.176 367.218C428.942 364.522 428.765 361.821 428.645 359.117C426.743 306.657 464.324 268.733 516.25 267.228ZM524.745 313.531C526.745 313.318 528.62 312.455 530.08 311.073C532.895 308.406 533.725 304.256 532.155 300.71C530.585 297.164 526.95 294.992 523.085 295.287C519.79 295.538 516.885 297.545 515.48 300.539C514.08 303.533 514.4 307.049 516.32 309.74C518.24 312.431 521.46 313.88 524.745 313.531Z" fill="url(#gradMain)"/>
</svg>
